<svg xmlns="http://www.w3.org/2000/svg" fill-rule="evenodd" clip-rule="evenodd" width="612px" height="502.174px"><path d="M4.82 19.407c-2.966-1.857-4.94-5.153-4.94-8.907 0-5.795 4.705-10.5 10.5-10.5 3.605 0 6.789 1.821 8.68 4.593 2.966 1.857 4.94 5.153 4.94 8.907 0 5.795-4.705 10.5-10.5 10.5-3.599 0-6.778-1.815-8.67-4.579l-.01-.014zm8.68-15.407c5.243 0 9.5 4.257 9.5 9.5s-4.257 9.5-9.5 9.5-9.5-4.257-9.5-9.5 4.257-9.5 9.5-9.5zm.5 15h-1.021v-.871c-2.343-.302-2.599-2.179-2.599-2.744h1.091c.025.405.157 1.774 2.182 1.774.599 0 1.088-.141 1.453-.419.361-.276.536-.612.536-1.029 0-.793-.513-1.367-2.07-1.718-2.368-.536-2.923-1.398-2.923-2.533 0-1.509 1.223-2.216 2.33-2.406v-1.054h1.021v1.015c2.491.195 2.695 2.215 2.695 2.771h-1.098c0-1.161-.918-1.766-1.996-1.766-1.077 0-1.854.532-1.854 1.408 0 .781.439 1.165 1.994 1.554 1.879.473 2.999 1.101 2.999 2.681 0 1.744-1.509 2.393-2.74 2.493v.844zm2.85-15.453c-1.696-1.58-3.971-2.547-6.47-2.547-5.243 0-9.5 4.257-9.5 9.5 0 2.633 1.073 5.017 2.806 6.739l-.004-.01c-.44-1.159-.682-2.416-.682-3.729 0-5.795 4.705-10.5 10.5-10.5 1.171 0 2.298.192 3.35.547z"/></svg>