<?xml version="1.0" encoding="UTF-8" standalone="no"?>
<svg
   id="svg"
   version="1.1"
   width="1200"
   height="600"
   viewBox="0 0 1200 600"
   sodipodi:docname="Official_Flag_of_Eritrea.svg"
   inkscape:version="1.1 (c68e22c387, 2021-05-23)"
   xmlns:inkscape="http://www.inkscape.org/namespaces/inkscape"
   xmlns:sodipodi="http://sodipodi.sourceforge.net/DTD/sodipodi-0.dtd"
   xmlns="http://www.w3.org/2000/svg"
   xmlns:svg="http://www.w3.org/2000/svg">
  <defs
     id="defs844" />
  <sodipodi:namedview
     id="namedview842"
     pagecolor="#ffffff"
     bordercolor="#999999"
     borderopacity="1"
     inkscape:pageshadow="0"
     inkscape:pageopacity="0"
     inkscape:pagecheckerboard="0"
     showgrid="true"
     inkscape:zoom="0.51916667"
     inkscape:cx="600"
     inkscape:cy="299.51846"
     inkscape:window-width="1366"
     inkscape:window-height="705"
     inkscape:window-x="-8"
     inkscape:window-y="-8"
     inkscape:window-maximized="1"
     inkscape:current-layer="g2206"
     showborder="false" />
  <g
     inkscape:groupmode="layer"
     id="layer1"
     inkscape:label="Layer ">
    <g
       id="g2206">
      <g
         id="svgg"
         transform="matrix(3,0,0,2.9992952,0,2)">
        <path
           id="path3"
           d="M 0,199.38017 H 400 V 99.356676 Z"
           stroke="none"
           fill="#3c8bdc"
           fill-rule="evenodd"
           sodipodi:nodetypes="cccc" />
      </g>
      <path
         style="fill:#0bac24;fill-opacity:1;stroke:none;stroke-width:1px;stroke-linecap:butt;stroke-linejoin:miter;stroke-opacity:1"
         d="M 0,0 H 1200 V 300 L 532.54334,147.09637 Z"
         id="path7373"
         sodipodi:nodetypes="ccccc" />
      <path
         style="fill:#eb0433;stroke:none;stroke-width:1px;stroke-linecap:butt;stroke-linejoin:miter;stroke-opacity:1;fill-opacity:1"
         d="M 0,0 V 599.99999 L 1200,300 Z"
         id="path3971" />
      <path
         id="path2"
         d="m 200.79423,138.06066 c -10.54489,2.55503 -21.20818,11.68675 -27.50352,23.54777 -2.51288,4.73521 -6.5552,5.76775 -6.5552,1.67704 0,-4.78451 3.57856,-9.55588 11.18297,-14.91587 8.49904,-5.98478 9.02201,-7.06664 3.75616,-7.72431 -9.40027,-1.17722 -19.1755,3.29493 -29.50658,13.48876 -10.11071,9.98009 -12.40322,15.1921 -12.40322,28.20076 0,7.32312 -0.0592,7.63551 -1.76627,9.41777 -6.07496,6.33992 -6.66043,-7.74402 -0.91107,-21.83124 2.5688,-6.29057 2.61156,-6.13932 -1.32551,-4.64314 -8.80166,3.34426 -17.06717,10.17083 -19.8399,16.3825 -3.99297,8.95742 -6.9137,26.14224 -5.78881,34.09017 0.51638,3.64018 1.09856,5.17912 4.2824,11.25268 2.21358,4.2255 -0.3881,7.22118 -3.39764,3.9164 -1.23012,-1.34823 -2.32211,-4.93579 -4.24952,-13.97542 -0.67756,-3.17654 -0.35852,-13.55123 0.54599,-17.73072 l 0.42429,-1.9434 -2.72996,2.16045 c -6.93673,5.49152 -14.847029,17.88196 -16.846801,26.39216 -3.578555,15.23156 2.706934,38.18414 13.248511,48.38455 4.8613,4.70231 6.20655,7.51713 3.58842,7.51713 -4.46332,0 -11.541467,-9.33229 -17.932204,-23.64311 -3.759449,-8.41486 -3.97653,-8.51021 -5.736206,-2.51887 -5.114561,17.41502 -5.05865,30.15074 0.197345,43.08706 4.805384,11.83469 20.089855,30.24937 30.157815,36.33607 3.48645,2.10783 5.29219,4.59709 4.16073,5.72828 -0.63151,0.63137 -8.11093,-2.15385 -12.16641,-4.52803 -5.33163,-3.12393 -15.518001,-13.61371 -19.830022,-20.42386 -4.219924,-6.66215 -4.604756,-6.86603 -4.604756,-2.46624 0,19.37817 7.420229,37.24698 21.000948,50.568 16.8238,16.50087 26.65164,21.76879 46.41916,24.88284 5.58492,0.87797 4.80869,2.53859 -1.44061,3.07129 -11.2356,0.9602 -31.19718,-3.07788 -41.43948,-8.37865 -2.79573,-1.44688 -3.1082,-0.62479 -1.36825,3.604 15.46209,37.52318 60.6281,55.3295 122.12782,48.14778 4.77908,-0.559 4.69028,-0.44392 -7.486,9.63482 -5.78883,4.79439 -10.58435,9.04951 -10.65999,9.45397 -0.11512,0.64123 8.2425,8.35237 9.53184,8.793 0.25653,0.0887 5.50267,-4.56749 11.65329,-10.34837 13.06106,-12.27537 12.27496,-11.91036 11.70264,-5.43234 -0.79925,9.02648 -1.22684,8.13863 4.93368,10.27605 6.47295,2.24594 5.98616,2.55175 6.4927,-4.04466 0.61176,-7.90186 0.36507,-7.93146 10.04822,1.22655 10.10083,9.55591 8.67008,9.1317 14.47534,4.29456 5.95,-4.95551 6.3743,-3.97231 -6.16378,-14.24506 -5.94341,-4.87002 -10.82774,-9.08896 -10.85406,-9.38162 -0.0263,-0.28937 3.28583,-0.28937 7.35444,0 62.04571,4.43267 98.52192,-9.27638 115.85223,-43.53424 1.64455,-3.25548 3.19043,-6.75097 3.43055,-7.77034 l 0.44073,-1.85133 -2.54906,1.10486 c -17.13953,7.43494 -46.62309,11.77882 -46.62309,6.87263 0,-0.69383 1.07882,-1.14435 3.61801,-1.51921 17.47174,-2.57805 27.01015,-7.30667 41.67957,-20.65074 17.40268,-15.83333 23.91839,-29.32865 25.17154,-52.13654 l 0.37825,-6.91537 -4.10481,6.1163 c -7.77874,11.58152 -16.91587,19.92403 -26.13524,23.85687 -9.3641,3.99533 -9.57789,0.52285 -0.31904,-5.26134 7.11104,-4.44253 22.03372,-22.16336 27.07921,-32.1599 6.29207,-12.45951 6.63411,-31.21945 0.87819,-48.02612 -1.37485,-4.01505 -1.68403,-3.87038 -4.06864,1.87434 -6.27232,15.11648 -14.44574,26.30667 -19.21495,26.30667 -2.59181,0 -1.24987,-2.76549 3.62788,-7.48094 5.73291,-5.54414 8.77534,-11.25268 11.76514,-22.08775 5.69016,-20.62773 1.70047,-35.93163 -13.20248,-50.64034 -4.47318,-4.41295 -5.28559,-4.459 -4.11139,-0.2302 2.7201,9.7861 -1.8386,31.11422 -6.64727,31.11422 -1.9011,0 -1.61166,-4.66614 0.4835,-7.8361 4.59488,-6.94166 4.61133,-17.02042 0.0558,-34.43871 -3.37134,-12.89358 -10.55146,-20.58829 -23.47107,-25.1459 -3.22991,-1.13777 -3.26608,-1.85791 0.3947,7.57303 4.83498,12.44635 3.49961,25.50431 -1.94715,19.03616 -1.56891,-1.86777 -1.6643,-2.34786 -1.32552,-6.74109 1.23013,-15.86291 -9.2424,-32.52491 -25.44782,-40.49911 -7.16368,-3.52511 -20.32997,-5.43232 -20.32997,-2.94307 0,1.22984 1.89123,3.1042 6.05196,5.99463 8.83124,6.13932 12.36705,10.58516 12.36705,15.55054 0,3.79803 -4.14758,3.69609 -5.89409,-0.14468 -6.79529,-14.92575 -22.18503,-25.79371 -36.4762,-25.75751 -7.25248,0.0197 -7.31826,2.43006 -0.16116,5.81375 4.31859,2.03877 7.37416,4.95223 8.0616,7.68155 0.77294,3.07789 -0.15788,3.00883 -3.58842,-0.26306 -7.56824,-7.2146 -19.43532,-10.75616 -26.73715,-7.98078 l -1.73007,0.65765 1.49325,2.65698 c 3.07532,5.46522 9.30817,8.43787 21.28711,10.14123 9.35092,1.33176 11.57108,2.43994 6.19338,3.08446 -7.43996,0.89442 -10.64683,0.6445 -13.89647,-1.08515 -6.8545,-3.64678 -6.86766,-1.08517 -0.0263,5.59673 8.04845,7.86241 14.94569,10.46676 25.13535,9.48684 11.44609,-1.10159 21.75415,-0.73658 24.81302,0.87471 3.78906,1.99603 4.09165,2.78521 1.07225,2.78521 -1.37813,0 -5.02246,0.44393 -8.09777,0.98652 -3.07533,0.54257 -7.27552,0.9865 -9.33449,0.9865 -4.96655,0 -5.03893,0.37158 -1.19724,6.11301 5.87764,8.78312 14.9161,16.24766 19.67543,16.24766 0.91768,0 1.7531,1.02267 2.91744,3.56456 7.29524,15.93198 19.82674,25.37934 35.0882,26.45134 7.02882,0.49326 7.13736,0.58534 9.5088,8.01367 l 1.1183,3.49879 -2.56549,-0.43075 c -1.41433,-0.24007 -4.90407,-0.52614 -7.7623,-0.64124 -6.7657,-0.26635 -17.14282,-6.58981 -17.19875,-10.48321 -0.007,-0.38803 -0.26969,-0.29924 -0.58545,0.1973 -0.61837,0.97992 -0.36509,4.58721 0.65453,9.28955 2.91746,13.44599 14.16618,27.54636 30.69394,38.47351 l 4.76921,3.1535 v 3.14694 c 0,1.73297 -0.28615,3.90324 -0.63809,4.82401 l -0.6348,1.67375 -4.81197,-3.43959 c -2.64443,-1.8908 -6.2789,-4.17948 -8.07803,-5.08049 -4.8942,-2.45968 -9.88377,-7.70129 -11.03495,-11.5881 l -0.95055,-3.21268 -0.74992,2.74574 c -5.17049,18.85861 -0.25656,42.97526 12.15652,59.69314 3.19045,4.29456 3.38122,5.17913 1.88138,8.7667 -1.98663,4.75494 -4.90078,6.78712 -4.90078,3.41656 0,-2.60764 -1.31563,-4.64969 -6.3348,-9.84197 -5.43032,-5.61647 -6.39731,-7.89199 -8.67008,-20.38768 l -0.53942,-2.95948 -1.75639,3.40998 c -8.59444,16.69488 -13.08406,40.77535 -11.58752,62.15939 0.79596,11.4171 0.88477,11.18365 -6.17366,16.70146 -4.72315,3.69608 -5.73291,4.0578 -4.41068,1.58496 2.13133,-3.97886 2.62141,-7.77032 2.46353,-19.13153 -0.16774,-12.13065 0.72031,-16.88888 4.22322,-22.63031 2.18067,-3.5777 1.07224,-3.90325 -4.23967,-1.24627 -12.17299,6.08671 -23.57631,19.26634 -33.48311,38.69383 -9.41342,18.45742 -17.39937,27.59569 -29.57893,33.83695 -6.56836,3.36725 -6.56836,3.36725 -6.07826,-4.40964 0.49664,-7.91502 -0.70718,-28.71047 -2.12478,-36.62549 -0.58216,-3.25544 -1.09857,-6.33331 -1.14789,-6.843 -0.0494,-0.50971 2.57537,-2.72274 5.83158,-4.92265 3.25622,-2.19989 7.94649,-6.02751 10.42648,-8.51021 l 4.50278,-4.5083 3.76273,1.6869 c 18.13286,8.13534 32.59505,1.65406 41.06451,-18.40808 2.04252,-4.83715 1.82874,-5.0476 -1.75969,-1.74281 -3.51933,3.24229 -4.59486,3.81775 -8.16683,4.36361 -3.54238,0.53929 -3.55224,0.56558 1.14131,-3.90654 5.42045,-5.17256 7.68006,-8.91139 8.51551,-14.09708 0.37824,-2.35117 0.98672,-5.30739 1.3551,-6.57338 0.36511,-1.26273 0.6644,-2.36761 0.6644,-2.4531 0,-0.0855 -1.95044,0.91744 -4.33833,2.2262 -4.03245,2.21963 -4.87117,2.41692 -12.04472,2.87728 -8.09119,0.51628 -13.2255,2.04537 -15.5772,4.63985 -6.23285,6.88577 -2.58195,-6.95154 3.88443,-14.71859 l 3.29898,-3.96245 -3.56539,0.42421 c -4.18047,0.49654 -10.05151,2.53529 -12.03156,4.17619 -8.92663,7.39545 -11.45266,14.32068 -10.69616,29.33852 0.57228,11.33817 -0.46706,12.94289 -13.74519,21.21632 -5.61451,3.49879 -6.39401,3.36727 -7.56496,-1.25944 -0.37824,-1.49618 -1.85175,-6.71477 -3.27593,-11.59795 -3.7463,-12.85082 -5.43361,-28.89788 -4.30545,-40.94634 l 0.47692,-5.09033 2.73984,-0.007 c 3.53907,-0.007 7.96949,-2.1407 14.84703,-7.14883 6.81173,-4.95883 7.93002,-5.04761 16.1199,-1.25615 12.09733,5.59674 20.80361,3.27188 27.98043,-7.47769 3.21676,-4.81411 3.53251,-6.51746 0.85846,-4.6168 -5.02575,3.56783 -11.40661,4.40963 -15.93244,2.10124 -4.48962,-2.28868 -4.20019,-2.68987 2.61155,-3.62047 7.68008,-1.04569 16.56723,-7.38559 19.68532,-14.0379 1.93399,-4.13014 1.70704,-4.44253 -1.98992,-2.76548 -3.72656,1.69019 -7.20643,1.68692 -10.54159,-0.0132 -3.70024,-1.89078 -10.30147,-1.87765 -13.5281,0.0263 -1.28933,0.7596 -2.49972,1.22653 -2.69049,1.03581 -0.79595,-0.79906 3.70684,-6.65887 6.55848,-8.52993 3.80878,-2.50242 3.6871,-3.11405 -0.83543,-4.1729 -8.83125,-2.06507 -15.35025,1.64087 -19.61624,11.14417 -1.62153,3.61717 -2.34183,6.09 -3.73641,12.88041 -0.56245,2.72602 -15.20555,18.56595 -17.16585,18.56595 -2.68063,0 -0.71704,-5.69871 8.03528,-23.3472 4.16731,-8.40498 7.4005,-15.8695 8.26224,-19.07233 2.16423,-8.07286 2.14778,-8.04655 5.71976,-9.10539 4.36465,-1.29561 8.32472,-3.35082 12.56767,-6.52078 3.18058,-2.37418 3.69696,-2.56161 4.93366,-1.78885 12.20589,7.62564 22.49422,5.53754 28.26331,-5.73486 2.06226,-4.03479 1.08211,-4.46556 -3.9239,-1.71979 -6.02237,3.30147 -13.41956,2.32815 -13.41956,-1.76584 0,-2.52873 0.96371,-3.05487 6.36442,-3.48565 6.98605,-0.55571 10.91654,-3.08116 13.43929,-8.62858 2.07543,-4.57078 1.66757,-5.74472 -1.38471,-3.99861 -1.02622,0.58534 -3.57197,0.94704 -6.76241,0.96347 -6.14405,0.0263 -8.90033,1.05886 -11.31782,4.22882 -3.54566,4.64641 -7.57152,2.72274 -5.06852,-2.42021 0.74334,-1.5258 1.8419,-4.18278 2.44053,-5.90256 0.5986,-1.72311 1.66429,-3.4396 2.36486,-3.81448 2.19056,-1.17394 0.68414,-2.09796 -2.61155,-1.60471 -8.61416,1.29232 -12.00195,6.72465 -12.4723,19.99638 -0.38811,11.05209 -2.86809,14.70871 -11.64014,17.16509 -3.83511,1.072 -4.35478,0.52942 -3.48317,-3.62046 2.43395,-11.57164 0.38154,-34.00138 -4.08835,-44.63256 l -1.92085,-4.57736 2.34515,-2.59449 c 7.25907,-8.0334 5.09482,-22.24559 -4.37124,-28.70387 -4.27254,-2.91347 -4.26268,-2.92662 -4.26268,5.80719 0,4.31101 -0.23023,8.0663 -0.50981,8.34579 -1.2663,1.26602 -10.31464,-9.39477 -11.92631,-14.05434 -1.04922,-3.02855 -1.57547,-3.06145 -3.48972,-0.22031 -2.16753,3.2127 -2.00637,8.11231 0.49993,15.1921 1.0887,3.07459 2.16094,6.13276 2.38131,6.80026 0.53941,1.62774 -5.50925,-1.37122 -8.46945,-4.19919 -2.70035,-2.57806 -2.7464,-2.54187 -2.28593,1.86449 1.08869,10.42732 6.47626,14.56732 18.98801,14.59363 6.11117,0.0103 7.07159,0.16441 7.37419,1.16407 2.7727,9.1317 4.26268,37.25353 2.46682,46.52992 -2.34183,12.09779 -8.53193,22.94929 -11.76513,20.62443 -8.77533,-6.30372 -14.65955,-12.13394 -14.16948,-14.03789 2.76944,-10.72983 -2.26619,-23.00189 -13.00512,-31.69297 -5.26587,-4.26167 -5.5586,-4.05123 -3.1115,2.24922 1.09198,2.80496 2.14122,6.86277 2.33857,9.01333 l 0.35521,3.9131 -3.22991,-2.3051 c -4.62447,-3.3015 -6.33481,-3.87695 -11.50528,-3.87695 -5.67371,0 -9.08452,-1.55867 -11.54149,-5.2745 -2.55892,-3.8605 -3.13123,-3.37381 -2.65429,2.25581 0.7828,9.25996 3.90087,14.6561 10.21265,17.6715 3.74631,1.79214 4.29888,3.4133 1.35512,4.00191 -3.24634,0.6511 -9.10424,0.49324 -10.55475,-0.28608 -2.3517,-1.25614 0.18092,2.61422 4.18376,6.39909 8.73586,8.2603 15.0345,9.38491 31.77934,5.68225 1.09527,-0.24334 13.05777,8.35238 18.88278,13.56438 0.2697,0.24333 -0.87162,2.64709 -2.53591,5.34354 -11.63027,18.82242 -16.24161,42.1696 -12.55782,63.59638 1.09199,6.36292 0.59534,6.81014 -3.92718,3.53824 -7.12093,-5.15939 -9.03189,-9.53287 -8.84113,-20.24954 0.28287,-15.9879 -4.06862,-23.96867 -16.11333,-29.56872 -7.60442,-3.53496 -12.02168,-4.13014 -8.73915,-1.17393 2.85493,2.5682 5.17376,7.62234 5.18034,11.28227 0.007,4.18276 -0.14801,4.20908 -3.32858,0.59519 -3.20688,-3.64018 -7.35116,-5.3271 -11.6566,-4.74177 -10.8409,1.47645 -15.30092,0.18085 -16.91917,-4.91607 -1.02619,-3.23571 -1.81558,-1.13119 -1.40445,3.74212 0.98674,11.67031 8.32803,19.65111 20.22144,21.99239 4.4403,0.87141 4.7988,1.67705 1.86163,4.14988 -3.68708,3.1009 -9.31475,1.88749 -17.8138,-3.8342 -4.48964,-3.02198 -4.6179,-2.36432 -0.99989,5.0739 7.25906,14.92245 20.1688,19.96347 35.96639,14.05106 2.71351,-1.01609 5.41386,-1.99931 6.00262,-2.18345 2.15766,-0.67413 22.0732,19.86811 25.21759,26.00742 4.56857,8.92456 9.14041,38.56231 8.80493,57.07562 -0.25655,14.2944 -0.10199,13.8406 -4.3186,12.70284 -16.02125,-4.33075 -27.82914,-15.48149 -38.75884,-36.59587 -11.1106,-21.45967 -21.16539,-33.32398 -33.59493,-39.63759 -5.96315,-3.03184 -6.38745,-2.8181 -4.18046,2.09138 3.33844,7.41849 4.00613,11.58809 3.82524,23.87989 -0.1546,10.3747 -0.0625,11.36447 1.32223,14.36673 1.78926,3.87366 1.57875,4.25839 -1.34526,2.4531 -5.29546,-3.2719 -9.1766,-8.40827 -8.65693,-11.45327 3.15097,-18.47715 -1.49325,-47.50658 -10.9922,-68.69002 -2.02938,-4.52474 -2.16094,-4.43268 -3.0457,2.18017 -1.00318,7.49083 -3.18058,12.04845 -8.29185,17.34596 -4.71987,4.88975 -6.32166,7.5829 -6.32166,10.62789 v 2.12098 l -1.60838,-1.50933 c -4.70012,-4.41624 -5.02574,-8.63188 -1.07883,-14.0379 11.32441,-15.51766 16.5212,-38.65767 12.62361,-56.22395 -0.86504,-3.89667 -2.04254,-6.07684 -2.04254,-3.77499 0,3.79143 -4.9567,9.11195 -12.57754,13.50516 -2.67077,1.53895 -6.43021,3.96903 -8.35763,5.39944 -4.14429,3.0779 -3.98639,3.15682 -4.49293,-2.26893 l -0.40126,-4.28142 3.08518,-2.2262 c 20.86939,-15.04082 29.21714,-25.4517 32.95355,-41.09102 2.0886,-8.74368 1.47354,-9.49341 -3.53907,-4.34061 -4.85143,4.9884 -7.39392,6.1196 -14.3997,6.41227 -3.09176,0.12823 -6.50257,0.42748 -7.58139,0.66422 l -1.9669,0.43077 0.47035,-2.53529 c 0.25983,-1.39754 1.2104,-3.89997 2.11489,-5.56715 l 1.64126,-3.02855 6.03222,-0.3979 c 11.95592,-0.7925 20.04383,-5.23502 28.21726,-15.49791 3.48318,-4.37021 7.95963,-11.90705 8.04187,-13.53479 0.0197,-0.34527 0.92095,-0.81551 2.00635,-1.04241 6.4335,-1.3515 13.66295,-7.3527 19.36297,-16.08322 4.15744,-6.36623 4.1706,-6.24784 -0.77953,-6.24784 -2.2596,0 -6.62753,-0.44393 -9.70285,-0.9865 -3.07531,-0.54258 -6.77555,-0.99638 -8.22277,-1.00624 l -2.63128,-0.023 1.55903,-1.2989 c 3.96337,-3.30147 8.63719,-3.66977 28.10213,-2.21303 9.86074,0.73656 17.21189,-2.3117 24.98736,-10.35827 5.94013,-6.14917 5.61121,-8.22412 -0.76965,-4.83056 -3.26609,1.73625 -6.56507,1.98615 -14.08068,1.0753 -5.28229,-0.64124 -2.86482,-1.70667 7.45312,-3.28507 10.79814,-1.65074 16.17912,-4.13343 19.39586,-8.94755 5.94013,-8.88509 -15.93243,-6.14589 -25.71095,3.21928 -3.30554,3.16996 -4.42714,3.66978 -4.42714,1.97629 0,-3.0713 3.25622,-6.52406 8.32802,-8.82918 9.85416,-4.48199 3.9272,-7.90844 -8.47602,-4.9029 m -53.17169,58.47359 c 1.86162,1.25285 5.07509,2.76876 7.13736,3.37383 7.30839,2.13741 7.30181,2.13084 2.91743,2.18674 -3.23647,0.0426 -5.39414,-0.44392 -10.01862,-2.24923 -3.23977,-1.26601 -6.34139,-2.30183 -6.89396,-2.30183 -1.51958,0 -1.19395,-1.67706 0.48019,-2.48598 2.25635,-1.08842 2.73326,-0.97665 6.3776,1.47647 m 197.41549,-1.27588 c 2.23988,1.15749 2.54247,2.28539 0.61177,2.28539 -0.73347,0 -3.9831,1.03582 -7.22288,2.30183 -4.65738,1.81846 -6.75583,2.28868 -10.01862,2.23608 -3.85811,-0.0658 -3.97653,-0.10854 -1.82216,-0.707 6.33152,-1.75269 7.77544,-2.33143 11.46911,-4.60365 4.64093,-2.85429 4.46333,-2.81483 6.98278,-1.51265"
         stroke="none"
         fill="#fbc724"
         fill-rule="evenodd"
         style="display:inline;stroke-width:3.28872" />
    </g>
  </g>
</svg>
